<?xml version="1.0" encoding="utf-8"?>
<!-- Generator: Adobe Illustrator 27.0.0, SVG Export Plug-In . SVG Version: 6.00 Build 0)  -->
<svg version="1.1" id="图层_1" xmlns="http://www.w3.org/2000/svg" xmlns:xlink="http://www.w3.org/1999/xlink" x="0px" y="0px"
	 viewBox="0 0 1417.32 1417.32" style="enable-background:new 0 0 1417.32 1417.32;" xml:space="preserve">
<style type="text/css">
	.st0{fill:#FFFFFF;}
	.st1{fill:url(#SVGID_1_);}
	.st2{fill:url(#SVGID_00000061434875637708692910000012100596707838457760_);}
	.st3{fill:#A16FF3;}
	.st4{fill:url(#SVGID_00000072279987970266946090000006000197513017336998_);}
	.st5{fill:url(#SVGID_00000151515023060438304540000007920387343938095000_);}
	.st6{fill:#9F6EFF;}
</style>
<rect x="-1.75" y="1.02" class="st0" width="1421.05" height="1419.3"/>
<g>
	<linearGradient id="SVGID_1_" gradientUnits="userSpaceOnUse" x1="602.8737" y1="381.6543" x2="781.6487" y2="675.0286">
		<stop  offset="0" style="stop-color:#21C1FF"/>
		<stop  offset="0.9954" style="stop-color:#AB94FF"/>
	</linearGradient>
	<path class="st1" d="M1005.81,657.67v10.71c0,43.38-29.34,80.51-71.33,90.38c-41.99,10.01-84.82-10.01-104.15-48.53L680.86,412.11
		l-5.14-10.15c0-0.14-0.14-0.28-0.14-0.28l-6.26-12.51l-0.42,0.97L539.59,727.33c-9.59,24.89-33.37,40.18-58.54,40.18
		c-7.37,0-15.02-1.39-22.39-4.17c-32.26-12.38-48.39-48.67-36.01-80.93l135.43-352.48l7.93-20.72
		c16.41-41.16,53.39-67.3,96.78-69.11c43.1-1.95,82.45,21.14,101.92,59.93l115.13,229.71v-0.28l-0.56-114.44
		c-0.28-34.48,27.67-62.71,62.15-62.85h0.42c34.35,0,62.29,27.81,62.57,62.15L1005.81,657.67z"/>
</g>
<linearGradient id="SVGID_00000129917700749843316740000002681801129593954192_" gradientUnits="userSpaceOnUse" x1="632.2572" y1="350.413" x2="467.0231" y2="703.7036">
	<stop  offset="0" style="stop-color:#0589F7"/>
	<stop  offset="0.9954" style="stop-color:#04DABE"/>
</linearGradient>
<path style="fill:url(#SVGID_00000129917700749843316740000002681801129593954192_);" d="M635.31,330.76c2.68,3.6,5,7.5,7.1,11.36
	c6.21,11.4,13.13,21.89,19.89,32.97c1.87,3.07,8.13,11.05,6.6,15.05c-0.01,0.02-129.31,337.19-129.31,337.19
	c-9.59,24.89-33.37,40.18-58.54,40.18c-7.37,0-15.02-1.39-22.39-4.17c-32.26-12.38-48.39-48.67-36.01-80.93
	c0,0,135.01-351.38,135.43-352.48c2.99-7.77,14.92-10.99,22-12.99c12.35-3.49,26.82-4.87,39.12,0.31
	C625.88,320.07,631.05,325.04,635.31,330.76z"/>
<path class="st3" d="M681.14,411.28l-0.28,0.83l-5.14-10.15C679.19,407.94,681.14,411.28,681.14,411.28z"/>
<linearGradient id="SVGID_00000024681489380683295190000017614092128201349773_" gradientUnits="userSpaceOnUse" x1="942.5447" y1="363.8427" x2="942.5447" y2="630.6552">
	<stop  offset="0" style="stop-color:#C062FE"/>
	<stop  offset="0.9954" style="stop-color:#9572FF"/>
</linearGradient>
<path style="fill:url(#SVGID_00000024681489380683295190000017614092128201349773_);" d="M1005.81,657.67
	c-9.18,11.12-22.25,23.36-35.18,22.8c-23.64-0.97-30.59-21-30.59-21l-60.21-129.73v-0.28l-0.56-114.44
	c-0.28-34.48,27.67-62.71,62.15-62.85h0.42c34.35,0,62.29,27.81,62.57,62.15L1005.81,657.67z"/>
<linearGradient id="SVGID_00000043452328457242134020000000689942199895455151_" gradientUnits="userSpaceOnUse" x1="936.7609" y1="215.6277" x2="936.7609" y2="306.5261">
	<stop  offset="0" style="stop-color:#C062FE"/>
	<stop  offset="0.9954" style="stop-color:#9572FF"/>
</linearGradient>
<circle style="fill:url(#SVGID_00000043452328457242134020000000689942199895455151_);" cx="936.76" cy="267.58" r="55.92"/>
<g>
	<path class="st6" d="M376.58,968.99c0,7.56-2.4,13.95-7.18,19.16c-4.79,5.21-11.72,7.81-20.79,7.81h-51.42V814.73l0.25,0.25h79.15
		V968.99z M346.08,838.92h-18.15v132.33h10.08c2.35,0,4.29-0.92,5.8-2.77c1.51-1.85,2.27-3.69,2.27-5.54V838.92z M385.14,829.35
		h14.87l-3.28-14.87h32.52l3.28,14.87h38.82l3.28-14.87h32.26l-3.28,14.87h15.12v24.95h-20.67l-3.53,16.64h-32.52l3.78-16.64h-27.98
		l3.78,16.64h-32.26l-3.78-16.64h-20.42V829.35z M518.99,880.52c-3.19,14.79-8.07,28.02-14.62,39.7
		c-6.55,11.68-14.37,22.14-23.44,31.38c11.93,5.88,24.53,10.08,37.81,12.6v30.75c-11.43-1.34-22.6-3.82-33.52-7.44
		c-10.92-3.61-21.42-8.44-31.51-14.49c-10.08,6.05-20.63,10.88-31.63,14.49c-11.01,3.62-22.22,6.09-33.65,7.44V964.2
		c13.78-2.52,26.38-6.72,37.81-12.6c-9.07-9.24-16.89-19.7-23.44-31.38c-6.55-11.68-11.43-24.91-14.62-39.7h35.79
		c2.35,10.59,6.05,20.21,11.09,28.86c5.04,8.66,11.26,16.43,18.65,23.32c7.22-6.89,13.36-14.66,18.4-23.32
		c5.04-8.65,8.74-18.27,11.09-28.86H518.99z"/>
	<path class="st6" d="M789.2,851.02h32.01v19.16H599.9v-19.16h32.01l-8.57-8.82h39.57l8.57,8.82h78.14l8.82-8.82h39.57L789.2,851.02
		z M727.95,976.3h93.26v19.91h-93.26h-34.78H599.9V976.3h93.26V970h-88.47v-19.91h88.47v-6.3h-54.19h-30h-5.04v-67.8h5.04h30h142.41
		h35.04v39.07c0,4.03-0.72,7.77-2.14,11.22c-1.43,3.45-3.4,6.47-5.92,9.07c-2.52,2.61-5.46,4.66-8.82,6.17
		c-3.36,1.51-6.97,2.27-10.84,2.27h-60.75v6.3h88.47V970h-88.47V976.3z M602.42,820.02h83.94l-3.02-6.05h43.35l3.02,6.05h88.98
		v19.16H602.42V820.02z M638.97,895.89v4.79h54.19v-4.79H638.97z M693.16,923.87v-5.55h-54.19v5.55H693.16z M781.38,895.89h-53.44
		v4.79h53.44V895.89z M773.57,923.87c1.85,0,3.4-0.54,4.66-1.64c1.26-1.09,2.22-2.39,2.9-3.91h-53.19v5.55H773.57z"/>
	<path class="st6" d="M1041.51,850.77v26.97h69.07v24.95h-69.07v38.31h81.67v24.95h-81.67v30.5h-35.04v-30.5H902.63v-24.95h16.38
		V902.7v-18.9v-6.05h87.46v-26.97h-67.3H923.8h-21.17l9.58-36.8h36.55l-3.02,11.85h176.95v24.95H1041.51z M1006.47,902.7h-52.43
		v38.31h52.43V902.7z"/>
</g>
<g>
	<path class="st6" d="M493.68,1158.33h-23.96l-9.52-24.78h-43.6l-9,24.78h-23.36l42.48-109.07H450L493.68,1158.33z M453.13,1115.18
		l-15.03-40.47l-14.73,40.47H453.13z"/>
	<path class="st6" d="M519.92,1158.33v-109.07h22.02v109.07H519.92z"/>
	<path class="st6" d="M614.25,1079.32v16.67h-14.29v31.84c0,6.45,0.14,10.21,0.41,11.27c0.27,1.07,0.89,1.95,1.86,2.64
		c0.97,0.7,2.15,1.04,3.53,1.04c1.93,0,4.74-0.67,8.41-2.01l1.79,16.22c-4.86,2.08-10.37,3.12-16.52,3.12
		c-3.77,0-7.17-0.63-10.19-1.9c-3.03-1.26-5.25-2.9-6.66-4.91s-2.39-4.72-2.94-8.15c-0.45-2.43-0.67-7.34-0.67-14.73v-34.45h-9.6
		v-16.67h9.6v-15.7l20.98-12.2v27.9H614.25z"/>
	<path class="st6" d="M639.16,1117.71c0-6.94,1.71-13.66,5.13-20.16c3.42-6.5,8.27-11.46,14.55-14.88
		c6.27-3.42,13.28-5.13,21.02-5.13c11.95,0,21.75,3.88,29.39,11.64c7.64,7.76,11.46,17.57,11.46,29.42
		c0,11.95-3.86,21.86-11.57,29.72c-7.71,7.86-17.42,11.79-29.13,11.79c-7.24,0-14.15-1.64-20.72-4.91
		c-6.57-3.27-11.57-8.07-14.99-14.4C640.87,1134.49,639.16,1126.79,639.16,1117.71z M660.59,1118.83c0,7.84,1.86,13.84,5.58,18
		c3.72,4.17,8.31,6.25,13.76,6.25c5.46,0,10.03-2.08,13.73-6.25c3.69-4.17,5.54-10.22,5.54-18.15c0-7.74-1.85-13.69-5.54-17.86
		c-3.7-4.17-8.27-6.25-13.73-6.25c-5.46,0-10.04,2.08-13.76,6.25C662.45,1104.99,660.59,1110.99,660.59,1118.83z"/>
	<path class="st6" d="M752.76,1158.33v-109.07h22.02v48.44l44.49-48.44h29.61l-41.07,42.48l43.3,66.59h-28.5l-29.98-51.19
		l-17.86,18.23v32.96H752.76z"/>
	<path class="st6" d="M877.06,1158.33v-109.07h22.02v109.07H877.06z"/>
	<path class="st6" d="M935.23,1049.26h40.25c9.08,0,16,0.7,20.76,2.08c6.4,1.89,11.88,5.23,16.44,10.04
		c4.56,4.81,8.04,10.7,10.42,17.67c2.38,6.97,3.57,15.56,3.57,25.78c0,8.98-1.12,16.72-3.35,23.21
		c-2.73,7.94-6.62,14.36-11.68,19.27c-3.82,3.72-8.98,6.62-15.48,8.71c-4.86,1.54-11.36,2.31-19.49,2.31h-41.44V1049.26z
		 M957.25,1067.71v72.24h16.44c6.15,0,10.59-0.35,13.32-1.04c3.57-0.89,6.54-2.41,8.89-4.54c2.36-2.13,4.28-5.64,5.77-10.53
		c1.49-4.89,2.23-11.54,2.23-19.98c0-8.43-0.74-14.9-2.23-19.42c-1.49-4.51-3.57-8.04-6.25-10.57c-2.68-2.53-6.08-4.24-10.19-5.13
		c-3.08-0.69-9.1-1.04-18.08-1.04H957.25z"/>
</g>
</svg>
